# xmcd
#
# Track frame offsets: 
#        150
#        13003
#        30192
#        46152
#        66866
#        83158
#        99329
#        114927
#        134866
#        148728
#        169104
#        186229
#        206700
#        223575
#        239224
#        256261
#        272549
#        289948
#        301964
#        320070
#        335887
#
# Disc length: 4673 seconds
#
# Revision: 0
# Processed by: cddbd v1.5.1PL2 Copyright (c) Steve Scherf et al.
# Submitted via: ExactAudioCopy v0.95b4
#
DISCID=43123f15
DTITLE=Various Artist - Hit Volume 7
DYEAR=2006
DGENRE=Top 40
TTITLE0=G-Spot - Sadness
TTITLE1=Youne - Such A Shame
TTITLE2=Marie Serneholt - That's The Way My Heart Goes
TTITLE3=Pete Murray - So Beautiful
TTITLE4=T.I. - Why You Wanna
TTITLE5=Daniela Mercury - Levada Braileira
TTITLE6=Infernal - From Paris To Berlin
TTITLE7=Bob Sinclair - World, Hold On (Axwell Remix)
TTITLE8=Fedde Le Grand Put Your Hands Up 4 Detroit
TTITLE9=Kelis Feat. Too Short - Bossy
TTITLE10=Live - Wiings
TTITLE11=Jamie Foxx - Extravaganza
TTITLE12=Scooter - Apache Rocks The Bottom
TTITLE13=Ten O'clock - Dancefloor Saints
TTITLE14=Pussycat Dolls Feat. Snoop Dogg - Buttons
TTITLE15=Nickelback - Savin'me
TTITLE16=Paris Hilton - Stars Are Blind
TTITLE17=Fatboy Slim - The Old Pair Of Jeans
TTITLE18=Partysquad Feat. Gio Ali B - Hard To Get
TTITLE19=The Mezz Feat. Dj Maurice - Ik Kan Het Niet Alleen
TTITLE20=Ali B and Andre Hazes - Wij Houden Van Orange
EXTD=
EXTT0=
EXTT1=
EXTT2=
EXTT3=
EXTT4=
EXTT5=
EXTT6=
EXTT7=
EXTT8=
EXTT9=
EXTT10=
EXTT11=
EXTT12=
EXTT13=
EXTT14=
EXTT15=
EXTT16=
EXTT17=
EXTT18=
EXTT19=
EXTT20=
PLAYORDER=
